<svg width="195" height="192" viewBox="0 0 195 192" fill="none" xmlns="http://www.w3.org/2000/svg">
<path d="M36.2499 147.25H158.75M36.2499 115.167C25.8983 112.936 16.8147 106.754 10.9154 97.9261C5.01603 89.0984 2.76223 78.315 4.62939 67.8508C6.49656 57.3865 12.3387 48.0596 20.9234 41.8375C29.5081 35.6153 40.1642 32.9845 50.6437 34.5C53.2226 28.623 56.8559 23.2724 61.3624 18.715C66.1038 13.9423 71.7363 10.1556 77.9373 7.57197C84.1384 4.9883 90.7862 3.65839 97.4999 3.65839C104.214 3.65839 110.861 4.9883 117.063 7.57197C123.264 10.1556 128.896 13.9423 133.637 18.715C138.144 23.2724 141.777 28.623 144.356 34.5C154.836 32.9845 165.492 35.6153 174.076 41.8375C182.661 48.0596 188.503 57.3865 190.37 67.8508C192.238 78.315 189.984 89.0984 184.085 97.9261C178.185 106.754 169.102 112.936 158.75 115.167V188.25H36.2499V115.167Z" stroke="#F8F8F8" stroke-width="7" stroke-linecap="round" stroke-linejoin="round"/>
</svg>
